<?xml version="1.0" encoding="UTF-8"?>
<svg width="90px" height="51px" viewBox="0 0 90 51" version="1.1" xmlns="http://www.w3.org/2000/svg" xmlns:xlink="http://www.w3.org/1999/xlink">
    <title>Express Small - Green</title>
    <g id="Page-1" stroke="none" stroke-width="1" fill="none" fill-rule="evenodd">
        <g id="Express-Small---Green" transform="translate(-0.000000, 0.007752)" fill="#007837" fill-rule="nonzero">
            <path d="M70.1161773,50.2255818 C81.2759596,50.2255818 88.9441334,38.6422485 89.8462715,28.7922485 C89.9130965,28.1255818 89.9298028,27.4755818 89.9298028,26.8422485 C89.9298028,15.7922485 81.4764347,11.5589152 75.412062,11.5589152 C70.032646,11.5589152 67.4598818,14.6755818 67.4598818,14.6755818 C73.0063604,15.2422485 79.8225149,19.1422485 79.8225149,27.2255818 C79.8225149,32.8422485 77.1829257,36.2755818 74.1256799,38.1922485 C72.3214037,39.3255818 70.6173651,39.5089152 70.6173651,39.5089152 C72.3548162,36.3255818 73.2569543,33.1589152 73.2569543,30.0589152 C73.2569543,23.6755818 69.6316957,17.9755818 62.1807033,17.9755818 C55.4313739,17.9755818 52.2237718,22.9255818 51.3717525,27.4755818 C51.3717525,27.4755818 51.3717525,27.4755818 51.3717525,27.4755818 C51.3717525,27.4755818 51.3717525,27.4922485 51.3717525,27.4922485 C51.3383399,27.6755818 51.3049274,27.8755818 51.2715149,28.0589152 C51.1712773,28.8422485 51.1211586,29.7089152 51.1211586,30.6589152 C51.1211586,34.2089152 52.557897,37.4422485 53.7774541,39.5422485 C53.7774541,39.5422485 52.240478,39.5755818 50.0853704,38.2089152 C47.0281246,36.2755818 44.3885354,32.8589152 44.3885354,27.2255818 C44.3885354,19.1422485 51.2046899,15.2422485 56.7511685,14.6755818 C56.7511685,14.6755818 54.1616981,11.5589152 48.7989883,11.5589152 C42.7346156,11.5589152 34.2812475,15.7922485 34.2812475,26.8422485 C34.2812475,27.4922485 34.31466,28.1255818 34.3647788,28.7922485 C35.2669169,38.6422485 42.8682656,50.2255818 54.028048,50.2255818 C56.9182311,50.2255818 59.6246454,49.4589152 62.0470532,48.1422485 C64.4527548,49.4589152 67.2092879,50.2255818 70.1161773,50.2255818 Z M59.2571076,29.4755818 C59.2571076,27.2922485 59.8919456,25.6589152 60.5769023,24.6589152 C60.242777,24.3755818 59.2236951,23.6089152 57.7201316,23.4422485 C55.247605,23.1589152 53.9278104,24.1922485 53.9278104,24.1922485 C53.9278104,24.1922485 55.8156179,22.0422485 58.6055635,22.0422485 C61.2117402,22.0422485 62.5816536,23.4922485 62.9324851,23.8422485 L62.9324851,23.8422485 C64.1687484,25.0755818 65.1210052,26.9255818 65.1210052,29.6089152 C65.1210052,32.3589152 64.1186296,35.2589152 62.1807033,37.6755818 C60.2594833,35.2589152 59.2571076,32.2089152 59.2571076,29.4755818 Z M62.3644722,14.2255818 C62.3644722,14.2255818 62.798835,10.5922485 66.9419877,8.15891519 C72.5719976,4.84224849 78.7031954,7.60891519 78.7031954,7.60891519 C79.5385085,3.47558182 72.3882288,-2.90775151 64.1687484,1.47558182 C60.6604336,3.35891516 59.7582955,6.74224849 59.8752393,8.95891519 C60.0423019,11.9922485 62.3644722,14.2255818 62.3644722,14.2255818 Z" id="Shape"></path>
            <path d="M10.4247068,17.3255818 C9.00467466,17.3255818 7.85194265,18.4755818 7.85194265,19.8922485 C7.85194265,21.3089152 9.00467466,22.4589152 10.4247068,22.4589152 L31.5414207,22.4589152 C31.942371,20.4589152 32.5939151,18.7589152 33.3958157,17.3089152 L10.4247068,17.3089152 L10.4247068,17.3255818 Z" id="Path"></path>
            <path d="M2.57276419,39.3089152 C1.15273201,39.3089152 0,40.4589152 0,41.8755818 C0,43.2922485 1.15273201,44.4422485 2.57276419,44.4422485 L37.3551995,44.4422485 C36.1189362,42.8422485 35.0497355,41.1089152 34.1643037,39.2922485 L2.57276419,39.2922485 L2.57276419,39.3089152 Z" id="Path"></path>
            <path d="M31.1237642,26.8089152 C31.1237642,26.5422485 31.1404704,26.3089152 31.1404704,26.0422485 L24.0236033,26.0422485 C22.6035711,26.0422485 21.4508391,27.1922485 21.4508391,28.6089152 C21.4508391,30.0255818 22.6035711,31.1755818 24.0236033,31.1755818 L31.5080082,31.1755818 C31.3910644,30.4589152 31.2908268,29.7422485 31.2240017,29.0255818 C31.1571767,28.3089152 31.1237642,27.5755818 31.1237642,26.8089152 Z" id="Path"></path>
        </g>
    </g>
</svg>